<?xml version="1.0" encoding="iso-8859-1"?>
<!-- Generator: Adobe Illustrator 19.0.0, SVG Export Plug-In . SVG Version: 6.00 Build 0)  -->
<svg version="1.1" id="Layer_1" xmlns="http://www.w3.org/2000/svg" xmlns:xlink="http://www.w3.org/1999/xlink" x="0px" y="0px"
	 viewBox="0 0 512 512" style="enable-background:new 0 0 512 512;" xml:space="preserve">
<rect y="148.652" width="512" height="214.696"/>
<g>
	<path style="fill:#E21B1B;" d="M102.88,262.612l8.576-0.752c0.408,3.44,1.352,6.256,2.832,8.464s3.792,3.984,6.912,5.344
		s6.64,2.04,10.544,2.04c3.472,0,6.528-0.512,9.184-1.544s4.632-2.448,5.928-4.24s1.944-3.76,1.944-5.88
		c0-2.16-0.624-4.04-1.872-5.648s-3.312-2.96-6.184-4.056c-1.84-0.72-5.92-1.832-12.232-3.352
		c-6.312-1.52-10.736-2.944-13.264-4.288c-3.28-1.72-5.728-3.848-7.336-6.4c-1.608-2.552-2.416-5.4-2.416-8.552
		c0-3.472,0.984-6.712,2.952-9.728s4.84-5.304,8.624-6.864s7.984-2.344,12.608-2.344c5.096,0,9.584,0.824,13.48,2.464
		c3.896,1.64,6.88,4.056,8.976,7.24c2.096,3.184,3.216,6.8,3.376,10.832l-8.72,0.656c-0.472-4.344-2.056-7.624-4.76-9.84
		s-6.696-3.328-11.976-3.328c-5.504,0-9.504,1.008-12.024,3.024c-2.52,2.016-3.776,4.448-3.776,7.288
		c0,2.472,0.888,4.496,2.672,6.096c1.752,1.592,6.32,3.224,13.712,4.896c7.392,1.672,12.464,3.136,15.208,4.384
		c4,1.84,6.952,4.176,8.856,7.008s2.856,6.088,2.856,9.776c0,3.656-1.048,7.104-3.144,10.336s-5.104,5.752-9.024,7.544
		s-8.336,2.696-13.24,2.696c-6.216,0-11.432-0.904-15.632-2.72s-7.504-4.536-9.888-8.176S103.008,267.204,102.88,262.612z"/>
	<path style="fill:#E21B1B;" d="M168.976,225.676v-9.704h8.44v9.704H168.976z M168.976,284.692v-49.784h8.44v49.784H168.976z"/>
	<path style="fill:#E21B1B;" d="M188.712,288.812l8.2,1.216c0.344,2.528,1.296,4.376,2.856,5.528
		c2.096,1.56,4.952,2.344,8.576,2.344c3.904,0,6.92-0.784,9.048-2.344s3.56-3.752,4.312-6.56c0.44-1.712,0.64-5.328,0.608-10.824
		c-3.688,4.344-8.28,6.512-13.784,6.512c-6.84,0-12.144-2.472-15.888-7.408s-5.624-10.856-5.624-17.768
		c0-4.752,0.856-9.136,2.576-13.152c1.72-4.016,4.208-7.12,7.48-9.304c3.272-2.184,7.104-3.28,11.504-3.28
		c5.872,0,10.72,2.376,14.528,7.128v-6h7.784v43.032c0,7.752-0.792,13.24-2.368,16.472s-4.08,5.792-7.504,7.664
		s-7.632,2.816-12.632,2.816c-5.936,0-10.736-1.336-14.392-4.008S188.584,294.188,188.712,288.812z M195.696,258.908
		c0,6.528,1.296,11.296,3.888,14.296s5.84,4.496,9.752,4.496c3.872,0,7.128-1.496,9.752-4.48s3.936-7.664,3.936-14.04
		c0-6.096-1.352-10.688-4.056-13.784c-2.704-3.096-5.96-4.64-9.776-4.64c-3.752,0-6.936,1.52-9.56,4.568
		C197.008,248.372,195.696,252.908,195.696,258.908z"/>
	<path style="fill:#E21B1B;" d="M243.648,284.692v-49.784h7.592v7.08c3.656-5.472,8.936-8.2,15.84-8.2c3,0,5.76,0.536,8.272,1.616
		c2.512,1.08,4.4,2.496,5.648,4.24c1.248,1.744,2.128,3.832,2.624,6.232c0.312,1.56,0.472,4.296,0.472,8.2v30.608h-8.44v-30.28
		c0-3.44-0.328-6.008-0.984-7.712s-1.824-3.064-3.496-4.08c-1.672-1.016-3.632-1.52-5.88-1.52c-3.592,0-6.696,1.144-9.304,3.424
		s-3.912,6.608-3.912,12.984v27.184h-8.432V284.692z"/>
	<path style="fill:#E21B1B;" d="M343.208,215.972h9.096v39.704c0,6.904-0.784,12.392-2.344,16.456s-4.384,7.368-8.464,9.912
		s-9.432,3.824-16.056,3.824c-6.44,0-11.704-1.112-15.8-3.328s-7.016-5.432-8.768-9.632s-2.624-9.944-2.624-17.224V215.98h9.096
		v39.656c0,5.968,0.552,10.368,1.664,13.192s3.016,5.008,5.72,6.536s6.008,2.296,9.912,2.296c6.688,0,11.456-1.512,14.296-4.544
		s4.264-8.856,4.264-17.488v-39.656H343.208z"/>
	<path style="fill:#E21B1B;" d="M366.368,303.764v-68.856h7.688v6.472c1.816-2.528,3.856-4.432,6.144-5.696
		c2.288-1.264,5.048-1.896,8.296-1.896c4.248,0,8,1.096,11.248,3.28c3.248,2.184,5.704,5.272,7.36,9.256
		c1.656,3.984,2.488,8.352,2.488,13.104c0,5.096-0.912,9.68-2.744,13.76s-4.488,7.2-7.968,9.376s-7.152,3.256-10.992,3.256
		c-2.816,0-5.336-0.592-7.568-1.784s-4.072-2.688-5.504-4.496v24.232h-8.448V303.764z M374.008,260.084
		c0,6.408,1.296,11.144,3.888,14.2s5.736,4.592,9.424,4.592c3.752,0,6.96-1.584,9.632-4.76s4.008-8.088,4.008-14.744
		c0-6.344-1.304-11.096-3.912-14.248s-5.728-4.736-9.352-4.736c-3.592,0-6.776,1.68-9.536,5.04
		C375.4,248.788,374.008,253.676,374.008,260.084z"/>
</g>
<g style="opacity:0.35;">
	<polygon style="fill:#FFFFFF;" points="0,261.492 0,148.652 112.832,148.652 	"/>
</g>
<g>
</g>
<g>
</g>
<g>
</g>
<g>
</g>
<g>
</g>
<g>
</g>
<g>
</g>
<g>
</g>
<g>
</g>
<g>
</g>
<g>
</g>
<g>
</g>
<g>
</g>
<g>
</g>
<g>
</g>
</svg>
